<svg width="6" height="12" viewBox="0 0 6 12" fill="none" xmlns="http://www.w3.org/2000/svg">
<path d="M3.95918 4.63907V3.15277C3.95918 2.61229 4.28571 2.47718 4.53061 2.47718C4.77551 2.47718 5.95918 2.47718 5.95918 2.47718V0H4C1.79592 0 1.26531 1.84662 1.26531 3.01765V4.63907H0V7.16129H1.26531C1.26531 10.4041 1.26531 12 1.26531 12H3.95918C3.95918 12 3.95918 10.3591 3.95918 7.16129H5.7551L6 4.63907H3.95918Z" fill="white"/>
<path d="M3.95918 4.63907V3.15277C3.95918 2.61229 4.28571 2.47718 4.53061 2.47718C4.77551 2.47718 5.95918 2.47718 5.95918 2.47718V0H4C1.79592 0 1.26531 1.84662 1.26531 3.01765V4.63907H0V7.16129H1.26531C1.26531 10.4041 1.26531 12 1.26531 12H3.95918C3.95918 12 3.95918 10.3591 3.95918 7.16129H5.7551L6 4.63907H3.95918Z" fill="white"/>
</svg>
