<svg width="14" height="14" viewBox="0 0 14 14" fill="none" xmlns="http://www.w3.org/2000/svg">
<g clip-path="url(#clip0_4_969)">
<path d="M13.7212 3.60812C13.642 3.31027 13.486 3.03844 13.2688 2.81983C13.0516 2.60122 12.7808 2.44349 12.4835 2.36243C11.3889 2.06812 7.01392 2.06812 7.01392 2.06812C7.01392 2.06812 2.63892 2.06812 1.54437 2.36243C1.24704 2.44349 0.976217 2.60122 0.759 2.81983C0.541784 3.03844 0.385794 3.31027 0.306643 3.60812C0.0139161 4.70743 0.013916 6.99993 0.013916 6.99993C0.013916 6.99993 0.0139161 9.29243 0.306643 10.3918C0.385794 10.6896 0.541784 10.9614 0.759 11.18C0.976217 11.3986 1.24704 11.5564 1.54437 11.6374C2.63892 11.9318 7.01392 11.9318 7.01392 11.9318C7.01392 11.9318 11.3889 11.9318 12.4835 11.6374C12.7808 11.5564 13.0516 11.3986 13.2688 11.18C13.486 10.9614 13.642 10.6896 13.7212 10.3918C14.0139 9.29243 14.0139 6.99993 14.0139 6.99993C14.0139 6.99993 14.0139 4.70743 13.7212 3.60812Z" fill="white"/>
<path d="M5.58203 9.08162V4.91821L9.24112 6.99992L5.58203 9.08162Z" fill="#7C8285"/>
</g>
<defs>
<clipPath id="clip0_4_969">
<rect width="14" height="14" fill="white"/>
</clipPath>
</defs>
</svg>
